# xmcd
#
# Track frame offsets: 
#        151
#        16486
#        31212
#        44764
#        58167
#        71261
#        83045
#        97533
#        111168
#        124441
#        138857
#        151760
#        165342
#        178631
#        192657
#        205651
#        215769
#        229209
#        240826
#        253268
#
# Disc length: 3546 seconds
#
# Revision: 0
# Processed by: cddbd v1.4PL0 Copyright (c) Steve Scherf et al.
# Submitted via: ExactAudioCopy v0.90b4
#
DISCID=0f0dd814
DTITLE=King Oliver - The Best Of The Instrumental Blues Of New Orleans
DYEAR=1900
DGENRE=Instrumental
TTITLE0=West End Blues
TTITLE1=Frankie And Johnny
TTITLE2=Aunt Hagar's Blues
TTITLE3=Tin Roof Blues
TTITLE4=Farewell Blues
TTITLE5=Sobbin' Blues
TTITLE6=Stingeree Blues
TTITLE7=Sugar Blues
TTITLE8=Mule Face Blues
TTITLE9=Freakish Light Blues
TTITLE10=Speakeasy Blues
TTITLE11=Black Snake Blues
TTITLE12=New Wang-Wang Blues
TTITLE13=Jackass Blues
TTITLE14=Riverside Blues
TTITLE15=Working Man's Blues
TTITLE16=Camp Meeting Blues
TTITLE17=Canal Street Blues
TTITLE18=London (Cafe) Blues
TTITLE19=Chimes Blues
EXTD=
EXTT0=
EXTT1=
EXTT2=
EXTT3=
EXTT4=
EXTT5=
EXTT6=
EXTT7=
EXTT8=
EXTT9=
EXTT10=
EXTT11=
EXTT12=
EXTT13=
EXTT14=
EXTT15=
EXTT16=
EXTT17=
EXTT18=
EXTT19=
PLAYORDER=
